<svg id="Layer_1" data-name="Layer 1" xmlns="http://www.w3.org/2000/svg" xmlns:xlink="http://www.w3.org/1999/xlink" viewBox="0 0 792 398.62"><defs><style>.cls-1{fill:none;}.cls-2{fill:#f2f2f2;}.cls-3{fill:#1c313f;stroke:#fff;stroke-miterlimit:10;}.cls-4{font-size:17.73px;}.cls-13,.cls-4,.cls-7{fill:#fff;}.cls-4,.cls-7{font-family:Arial-BoldMT, Arial;font-weight:700;}.cls-5{letter-spacing:-0.04em;}.cls-6{letter-spacing:0em;}.cls-7{font-size:32.44px;}.cls-8{clip-path:url(#clip-path);}.cls-9{fill:#012d3d;}.cls-10{fill:#ffae9c;}.cls-11{fill:#cb6756;}.cls-12{fill:#008374;}.cls-14{fill:#c8eaff;}.cls-15{fill:#a0d2f8;}.cls-16{fill:#ff9700;}.cls-17{fill:#ff6c76;}.cls-18{fill:#ffb700;}.cls-19{fill:#e34a5d;}.cls-20{fill:#c26251;}.cls-21{fill:#ff8a96;}</style><clipPath id="clip-path"><rect class="cls-1" x="18.37" y="52.48" width="347.32" height="347.32"/></clipPath></defs><title>stats-img</title><circle class="cls-2" cx="753.82" cy="182.79" r="6.99"/><circle class="cls-2" cx="788.18" cy="160.83" r="3.67"/><path class="cls-2" d="M92.07,265.71a11.36,11.36,0,1,1,15.78,3h0A11.37,11.37,0,0,1,92.07,265.71Zm17.33-11.8a9.61,9.61,0,1,0-2.53,13.35h0a9.62,9.62,0,0,0,2.53-13.35Z"/><circle class="cls-2" cx="54.73" cy="265.09" r="6.99"/><circle class="cls-2" cx="14.2" cy="269.54" r="3.67"/><polyline class="cls-3" points="247.25 307.31 361.79 251.41 573.15 251.41 710.87 307.31 247.25 307.31"/><rect class="cls-3" x="421.11" y="242.54" width="85.91" height="8.18"/><polygon class="cls-3" points="420.43 241.86 435.43 236.41 462.7 202.31 489.97 235.04 506.33 241.86 420.43 241.86"/><polygon class="cls-3" points="289.52 307.31 271.8 320.95 667.24 320.95 645.88 307.31 289.52 307.31"/><rect class="cls-3" x="277.25" y="385.72" width="382.49" height="4.77"/><rect class="cls-3" x="277.25" y="380.26" width="382.49" height="4.77"/><rect class="cls-3" x="277.25" y="374.81" width="382.49" height="4.77"/><rect class="cls-3" x="422.64" y="320.95" width="5.97" height="69.54"/><rect class="cls-3" x="493.55" y="320.95" width="5.97" height="69.54"/><rect class="cls-3" x="568.55" y="320.95" width="5.97" height="69.54"/><rect class="cls-3" x="646.27" y="320.95" width="5.97" height="69.54"/><rect class="cls-3" x="353.1" y="320.95" width="5.97" height="69.54"/><rect class="cls-3" x="284.92" y="320.95" width="5.97" height="69.54"/><rect class="cls-3" x="170.21" y="165.5" width="96.81" height="234.54"/><rect class="cls-3" x="157.26" y="145.73" width="122.72" height="20.45"/><rect class="cls-3" x="349.52" y="69.37" width="13.64" height="20.45"/><rect class="cls-3" x="581.33" y="69.37" width="13.64" height="20.45"/><rect class="cls-3" x="674.74" y="165.5" width="96.81" height="234.54"/><rect class="cls-3" x="661.78" y="145.73" width="122.72" height="20.45"/><rect class="cls-3" x="322.36" y="36.12" width="305.44" height="32.73"/><rect class="cls-3" x="192.03" y="89.14" width="565.89" height="55.91"/><text class="cls-4" transform="translate(406.45 58.11)">MASJID<tspan class="cls-5" x="67" y="0"> </tspan><tspan class="cls-6" x="71.27" y="0">AGUNG</tspan></text><text class="cls-7" transform="translate(256.46 129.36)">NUR SULAIMAN BANYUMAS</text><g class="cls-8"><path class="cls-9" d="M252.9,168.32s10.41-6,25.89-.57c0,0,.27,10-12.15,10S252.9,168.32,252.9,168.32Z"/><path class="cls-10" d="M264.44,330.16,225,563.91a9.47,9.47,0,0,1-18.76-2.5L229.4,325.49A17.69,17.69,0,0,1,264.61,329C264.57,329.34,264.51,329.78,264.44,330.16Z"/><path class="cls-10" d="M305.78,327.49l-2.73,235a9.88,9.88,0,0,1-19.75.38L271.41,328.16a17.2,17.2,0,0,1,34.35-1.74C305.77,326.76,305.78,327.15,305.78,327.49Z"/><path class="cls-10" d="M198.29,272.24,161.08,217a7.23,7.23,0,0,1,11.47-8.77l43.54,50.4a11.22,11.22,0,1,1-17,14.68A11.69,11.69,0,0,1,198.29,272.24Z"/><path class="cls-10" d="M208.52,277.2a11.07,11.07,0,0,1-4.08-.78,11.19,11.19,0,0,1-6.35-14.52l28.31-72.29a11.21,11.21,0,1,1,20.87,8.17L219,270.08A11.22,11.22,0,0,1,208.52,277.2Z"/><path class="cls-10" d="M171.06,215.94s17-11.81,17.08-13.93-12.88,3.24-12.88,3.24-6-32-7.93-31.92.08,14.2.08,14.2-4.39-15.42-6.31-15c-1.75.41,1.83,16.69,1.83,16.69s-6.34-15.57-7.55-14.27,3.41,15.88,3.41,15.88-6.66-11.8-7.41-10.85,3.67,14.16,3.67,14.16c1,6.55,1.51,14.36,2.41,17.38C161,223.55,171.06,215.94,171.06,215.94Z"/><path class="cls-11" d="M215.11,257a.23.23,0,0,1-.17-.07l-10.12-9a.25.25,0,0,1,0-.36.26.26,0,0,1,.36,0l10.12,9a.26.26,0,0,1,0,.36A.25.25,0,0,1,215.11,257Z"/><polygon class="cls-12" points="227.9 303.86 203.14 535.06 235.46 535.06 267.62 329.84 270.2 297.78 227.9 303.86"/><polygon class="cls-12" points="311.4 302.86 308.14 535.06 276.34 535.06 265.04 294.06 311.4 302.86"/><path class="cls-9" d="M266.88,333.66a.25.25,0,0,1-.25-.25l-.95-31.86a.24.24,0,0,1,.24-.26.24.24,0,0,1,.26.24l1,31.87a.26.26,0,0,1-.25.26Z"/><path class="cls-9" d="M266.81,331.4c-2.48,0-5.2-1.62-5.26-4.23l-1-24.52a.25.25,0,0,1,.25-.26.24.24,0,0,1,.26.24l1,24.52c.06,2.31,2.51,3.74,4.75,3.74a.26.26,0,0,1,.26.26A.26.26,0,0,1,266.81,331.4Z"/><path class="cls-9" d="M308.81,319.41h0c-9.33-1.1-14-6.42-14.59-16.75a.24.24,0,0,1,.23-.27.24.24,0,0,1,.27.23c.61,10.05,5.11,15.22,14.15,16.28a.26.26,0,0,1,.22.29A.24.24,0,0,1,308.81,319.41Z"/><path class="cls-9" d="M227.2,321.77a.23.23,0,0,1-.2-.1.26.26,0,0,1,0-.36c4.69-3.63,8.57-10.5,9.88-17.5a.25.25,0,0,1,.3-.2.24.24,0,0,1,.2.29c-1.35,7.23-5.21,14.05-10.06,17.82A.3.3,0,0,1,227.2,321.77Z"/><path class="cls-10" d="M349,253.12a11.19,11.19,0,0,1-8.34-3.72l-43.26-48.22a11.21,11.21,0,1,1,16.68-15l43.26,48.22A11.2,11.2,0,0,1,349,253.12Z"/><path class="cls-13" d="M314.93,343.56q-3.92.39-8,.72L304.55,329,299,344.83c-29.61,1.78-63.12.86-82-2.14l13-125.2,7.53-41.38,24.86-7.79,33.81,5.14,12.09,49.6Z"/><path class="cls-13" d="M237.61,176.11h0a30.45,30.45,0,0,0-19.05,18.09L205,229.72c7.5,6.91,17.91,10.36,28.09,11.1Z"/><path class="cls-13" d="M296.28,173.46h0a32.14,32.14,0,0,1,17.31,9.23l31.51,33.89c-5.26,9.39-12,17-20.88,22.17l-23.53-17.12-20.88-30.81Z"/><path class="cls-14" d="M277.84,345.64h-.69v-111q0-28.85,0-57.68a.35.35,0,0,1,.69,0v32.37q0,28.69,0,57.38ZM273,264.37q-.18-13.58-.35-27.14c-.12-8.94-.31-17.88-.27-26.82a178.9,178.9,0,0,1,2.25-30c.07-.44-.59-.63-.67-.18-3.08,17.61-2.28,35.65-2.05,53.45q.36,27.28.71,54.55c.11,8.87.23,47,.34,57.53h.69C273.39,328,273.17,281.16,273,264.37Zm-18.7,81.18c.39-17.88.79-63.78,1.18-80.21q.69-28.18,1.36-56.36.39-15.9.77-31.79a.35.35,0,0,0-.69,0l-1.37,56.65q-.67,28.17-1.36,56.35c-.19,8.18-.39,44.65-.59,55.35Zm4.64-79.43c.51-18.78,1.32-37.56,2-56.33q.6-15.91,1.22-31.81c0-.44-.67-.44-.69,0q-1.09,28.34-2.18,56.66c-.72,18.77-1.41,37.54-1.5,56.32,0,8,0,44.29.26,54.68h.68C258.27,328.06,258.45,282.32,258.89,266.12Z"/><path class="cls-15" d="M227.6,241.53h0a.26.26,0,0,1-.24-.27c0-.33,2.06-33.35,2.49-50.45a.26.26,0,1,1,.51,0c-.43,17.1-2.47,50.13-2.49,50.46A.25.25,0,0,1,227.6,241.53Z"/><path class="cls-15" d="M229.11,214.76a.27.27,0,0,1-.17-.06c-4.24-3.75-4.39-10.78-4.39-11.08a.26.26,0,0,1,.25-.26.27.27,0,0,1,.26.25c0,.07.14,7.11,4.22,10.71a.26.26,0,0,1,0,.36A.27.27,0,0,1,229.11,214.76Z"/><path class="cls-15" d="M308.45,225.32a.26.26,0,0,1-.22-.13,69.76,69.76,0,0,1-8-41,.26.26,0,1,1,.51.09c0,.19-3.29,19.85,8,40.68a.27.27,0,0,1-.1.35A.28.28,0,0,1,308.45,225.32Z"/><path class="cls-16" d="M281.39,302.06a1.74,1.74,0,0,1,1.16.59,1.63,1.63,0,0,1,.46,1.15,1.77,1.77,0,0,1-1.65,1.71,1.66,1.66,0,0,1-1.77-1.74,1.81,1.81,0,0,1,.55-1.29A1.55,1.55,0,0,1,281.39,302.06Z"/><path class="cls-16" d="M282.09,298.67a1.82,1.82,0,0,1,1.23,2,1.66,1.66,0,0,1-.68,1,1.83,1.83,0,0,1-1.25.35,1.6,1.6,0,0,1-1.14-.66A1.8,1.8,0,0,1,280,300,1.65,1.65,0,0,1,282.09,298.67Z"/><path class="cls-16" d="M283.58,295.56a1.93,1.93,0,0,1,.78,1.05,1.71,1.71,0,0,1-.08,1.2,1.83,1.83,0,0,1-2.19.86,1.64,1.64,0,0,1-.89-2.34,1.75,1.75,0,0,1,1.08-1A1.48,1.48,0,0,1,283.58,295.56Z"/><path class="cls-16" d="M285.84,292.94a1.92,1.92,0,0,1,.47,1.22,1.52,1.52,0,0,1-.1.6,1.29,1.29,0,0,1-.28.53,1.71,1.71,0,0,1-1.07.55,2,2,0,0,1-1.28-.28,1.54,1.54,0,0,1-.69-1.12,1.75,1.75,0,0,1,.44-1.38,2.44,2.44,0,0,1,.6-.48,2,2,0,0,1,.7-.16A1.57,1.57,0,0,1,285.84,292.94Z"/><path class="cls-16" d="M288.64,290.92a1.89,1.89,0,0,1,.2,1.29,1.6,1.6,0,0,1-.66,1,1.54,1.54,0,0,1-1.18.29,1.94,1.94,0,0,1-1.16-.59,1.49,1.49,0,0,1-.4-1.26,1.88,1.88,0,0,1,.74-1.22,2,2,0,0,1,1.39-.32A1.6,1.6,0,0,1,288.64,290.92Z"/><path class="cls-16" d="M291.75,289.39a1.76,1.76,0,0,1-.84,2.27,1.7,1.7,0,0,1-1.25.08,1.85,1.85,0,0,1-1-.82,1.55,1.55,0,0,1-.13-1.31,1.77,1.77,0,0,1,.92-1A1.7,1.7,0,0,1,291.75,289.39Z"/><path class="cls-16" d="M295,288.23a1.77,1.77,0,0,1-1.07,2.13,1.75,1.75,0,0,1-2.19-1,1.73,1.73,0,1,1,3.26-1.16Z"/><path class="cls-16" d="M290.1,327.9a2.83,2.83,0,0,1,.69-.45,1.59,1.59,0,0,1,2,.35A1.86,1.86,0,0,1,293,330l-.13.14a1.88,1.88,0,0,1-1.83.32,2.15,2.15,0,0,1-.91-.53,1.87,1.87,0,0,1-.45-.77A1.24,1.24,0,0,1,290.1,327.9Z"/><path class="cls-16" d="M288.29,324.93a1.73,1.73,0,0,1,2.54,1.91,2.64,2.64,0,0,1-.74,1.05,1.29,1.29,0,0,1-1.32.22,1.74,1.74,0,0,1-1.07-.8A1.72,1.72,0,0,1,288.29,324.93Z"/><path class="cls-16" d="M286.64,321.89a1.73,1.73,0,0,1,1.65,3,1.73,1.73,0,0,1-1.65-3Z"/><path class="cls-16" d="M285.13,318.77a1.73,1.73,0,0,1,1.51,3.12,1.73,1.73,0,1,1-1.51-3.12Z"/><path class="cls-16" d="M283.79,315.58a1.73,1.73,0,0,1,1.34,3.19,1.73,1.73,0,1,1-1.34-3.19Z"/><path class="cls-16" d="M282.67,312.3a1.73,1.73,0,0,1,1.12,3.28,1.73,1.73,0,1,1-1.12-3.28Z"/><path class="cls-16" d="M281.82,308.94a1.76,1.76,0,0,1,2,1.28,1.74,1.74,0,0,1-1.19,2.08,1.73,1.73,0,1,1-.85-3.36Z"/><path class="cls-16" d="M281.36,305.51a1.73,1.73,0,0,1,.46,3.43,1.73,1.73,0,1,1-.46-3.43Z"/><path class="cls-10" d="M308.55,295.11s-7.41-6.27-10.32-6.29-20.84,2.87-20.41,5.18c.29,1.58,14.95-.45,14.95-.45s-15.43,2.86-15.59,4.9,16.06-.58,16.06-.58-13.06,4.05-12.39,5.62,15.6-1.25,15.6-1.25-12.17,4.89-12.06,6.23,15-2.63,15-2.63,11.75,7.71,16.27,2C319.78,302.6,308.55,295.11,308.55,295.11Z"/><path class="cls-17" d="M298.76,346.36s-4.45-8.95-3.17-10.69,7.81,7.4,7.81,7.4S301.73,346.72,298.76,346.36Z"/><path class="cls-18" d="M296.34,334c.55,1.37.52,2.68-.08,2.91s-1.51-.68-2.06-2.05-.51-2.67.08-2.91S295.79,332.59,296.34,334Z"/><path class="cls-17" d="M295.82,329.73a2.43,2.43,0,1,1-3.15-1.36A2.43,2.43,0,0,1,295.82,329.73Z"/><path class="cls-16" d="M293.22,328.86a1.31,1.31,0,0,1-.06-.27,2.16,2.16,0,0,1,.19-1.52,2,2,0,0,1,1.91-.71c1.53.23,1.49,2.1.5,2.95a1.69,1.69,0,0,1-2.22.12A1.61,1.61,0,0,1,293.22,328.86Z"/><path class="cls-16" d="M298.43,287.8a2.19,2.19,0,0,1-.51,1.19,1.59,1.59,0,0,1-1,.58,1.83,1.83,0,0,1-1.93-1.34,1.64,1.64,0,0,1,1.46-2.05,1.88,1.88,0,0,1,1.46.39A1.43,1.43,0,0,1,298.43,287.8Z"/><path class="cls-16" d="M301.4,289.34a2.91,2.91,0,0,1-1.2.45,1.56,1.56,0,0,1-.87,0,1.66,1.66,0,0,1-.6-.72,2.27,2.27,0,0,1-.3-1.25,1.37,1.37,0,0,1,.71-1.13,1.87,1.87,0,0,1,1.71,0,1.91,1.91,0,0,1,1.1,1.42A1.23,1.23,0,0,1,301.4,289.34Z"/><path class="cls-16" d="M302.43,292.61a1.92,1.92,0,0,1-1.94-1.23,1.47,1.47,0,0,1,.12-1,2.69,2.69,0,0,1,.79-1,1.29,1.29,0,0,1,1.33-.15,1.88,1.88,0,0,1,1,1.24A1.62,1.62,0,0,1,302.43,292.61Z"/><path class="cls-16" d="M302.38,296.06a1.77,1.77,0,0,1-1.61-1.76,1.81,1.81,0,0,1,1.66-1.69,1.73,1.73,0,1,1-.05,3.45Z"/><path class="cls-16" d="M301.88,299.49a1.74,1.74,0,0,1-1.41-1.95,1.77,1.77,0,0,1,1.91-1.48,1.73,1.73,0,1,1-.5,3.43Z"/><path class="cls-16" d="M301.18,302.88a1.73,1.73,0,0,1,.7-3.39,1.73,1.73,0,0,1-.7,3.39Z"/><path class="cls-16" d="M300.36,306.25a1.73,1.73,0,1,1,2.08-1.28A1.73,1.73,0,0,1,300.36,306.25Z"/><path class="cls-16" d="M299.49,309.6a1.73,1.73,0,1,1,2.09-1.24A1.71,1.71,0,0,1,299.49,309.6Z"/><path class="cls-16" d="M298.59,313a1.73,1.73,0,1,1,2.1-1.23A1.73,1.73,0,0,1,298.59,313Z"/><path class="cls-16" d="M297.7,316.3a1.73,1.73,0,1,1,2.1-1.24A1.72,1.72,0,0,1,297.7,316.3Z"/><path class="cls-16" d="M296.86,319.66a1.73,1.73,0,1,1,2.07-1.27A1.73,1.73,0,0,1,296.86,319.66Z"/><path class="cls-16" d="M296.08,323a1.73,1.73,0,1,1,2-1.31A1.71,1.71,0,0,1,296.08,323Z"/><path class="cls-16" d="M295.42,326.43a1.73,1.73,0,1,1,.66-3.4,1.73,1.73,0,0,1-.66,3.4Z"/><path class="cls-10" d="M357.73,249,316.56,305.8a7.23,7.23,0,0,1-12.15-7.8l34.45-61.08a11.23,11.23,0,0,1,19.56,11C358.21,248.32,358,248.68,357.73,249Z"/><polygon class="cls-19" points="306.32 291.64 320.07 302.64 324.11 296.58 309.82 286.72 306.32 291.64"/><path class="cls-13" d="M318.45,293.8a4.29,4.29,0,1,1-4.29-4.16A4.22,4.22,0,0,1,318.45,293.8Z"/><path class="cls-11" d="M336,242.72a.22.22,0,0,1-.13,0,.25.25,0,0,1-.09-.34l3.44-6.05a.24.24,0,0,1,.34-.1.25.25,0,0,1,.1.35l-3.44,6.05A.26.26,0,0,1,336,242.72Z"/><path class="cls-10" d="M276.19,147.19l1.66,23.62s-13.49,6.72-22.42,1.49l.32-17.93Z"/><path class="cls-9" d="M255.54,166.05c11.85-1,16-7.48,16-7.48l-15.91,1.12Z"/><path class="cls-10" d="M280.42,171.05,263.55,168l-11.2,3.52C254.51,182.72,276.61,183.89,280.42,171.05Z"/><path class="cls-10" d="M252.28,107.81c22.06-2.73,33.64,7.88,31.78,28.49-1.49,16.4-11,26.61-26.53,26.66-14.28,0-16.6-11.62-16.79-23.85C240.46,121.67,239.18,109.44,252.28,107.81Z"/><path class="cls-9" d="M241.29,130.69s5.52-.94,8.93-.33C248.36,127.79,243.43,129,241.29,130.69Z"/><path class="cls-9" d="M268,130.69s-5.52-.94-8.93-.33C261,127.79,265.88,129,268,130.69Z"/><path class="cls-9" d="M248.49,138.82a1.64,1.64,0,1,1-1.61-2A1.83,1.83,0,0,1,248.49,138.82Z"/><path class="cls-13" d="M247.58,138.1a.51.51,0,1,1-.5-.63A.58.58,0,0,1,247.58,138.1Z"/><path class="cls-9" d="M264,138.82a1.64,1.64,0,1,1-1.6-2A1.83,1.83,0,0,1,264,138.82Z"/><path class="cls-13" d="M263.14,138.1a.52.52,0,1,1-.5-.63A.58.58,0,0,1,263.14,138.1Z"/><path class="cls-20" d="M253,146.12h-.09a2.61,2.61,0,0,1-1.93-1.14,1.83,1.83,0,0,1-.06-1.6,11,11,0,0,1,.83-1.54,10,10,0,0,0,.77-1.43.51.51,0,0,1,.66-.29.5.5,0,0,1,.3.65,10.35,10.35,0,0,1-.86,1.59,11.93,11.93,0,0,0-.75,1.38.87.87,0,0,0,0,.74,1.77,1.77,0,0,0,1.24.64.51.51,0,0,1-.1,1Z"/><path class="cls-13" d="M249.09,148.68a55.28,55.28,0,0,0,11-.4C258.17,152.68,250.3,151.91,249.09,148.68Z"/><path class="cls-9" d="M285,140.58s9.09-22.64.61-24.43-12.13.33-12,6.2S278.31,138.53,285,140.58Z"/><path class="cls-10" d="M280.39,139.35c-1.31,3.23-.37,6.35,2,7.3s5.3-.91,6.61-4.14.47-6.62-1.87-7.57S281.7,136.12,280.39,139.35Z"/><path class="cls-20" d="M282.65,143.52a.51.51,0,0,1-.18-1,1.64,1.64,0,0,0,1.13-1.32,1.86,1.86,0,0,0-.19-.79,3.06,3.06,0,0,1-.25-1,2.64,2.64,0,0,1,2.87-2.72,2.4,2.4,0,0,1,1.87,2.47.51.51,0,0,1-1,0,1.43,1.43,0,0,0-1-1.47,1.61,1.61,0,0,0-1.27.54,1.53,1.53,0,0,0-.43,1.11,2.51,2.51,0,0,0,.19.67,2.7,2.7,0,0,1,.26,1.21,2.66,2.66,0,0,1-1.8,2.23Z"/><path class="cls-14" d="M239.73,124.08l49,4s7.7-25.43-20.67-28C245.58,98,240.88,108.47,239.73,124.08Z"/><path class="cls-13" d="M289.46,124c-5,0-10.11-.09-15.15-.34Q260,123,245.9,120.88c-1.92-.28-3.84-.59-5.76-.91,0,.23,0,.46-.08.69q9.06,1.52,18.19,2.47c9.44,1,18.93,1.5,28.42,1.56.9,0,1.8,0,2.71,0C289.41,124.47,289.43,124.24,289.46,124Z"/><path class="cls-13" d="M242.19,114.58a5.66,5.66,0,0,1,1.54,1.17c.4.44.71,1,1.16,1.38a2.67,2.67,0,0,0,3.26.05c1.08-.64,2.07-1.94,3.42-1.92,1,0,1.74.94,2.39,1.61a3.62,3.62,0,0,0,2.35,1.35A5,5,0,0,0,259,117.1c.87-.54,1.79-.94,2.73-.33a26.41,26.41,0,0,1,2.1,2,2.75,2.75,0,0,0,2.59.57,21.67,21.67,0,0,0,2.69-1.43,2.1,2.1,0,0,1,2.58.54,8.89,8.89,0,0,0,2,2,2.7,2.7,0,0,0,2.61-.15,10.42,10.42,0,0,1,2.55-1.4c1.12-.24,1.75.83,2.47,1.49a2.39,2.39,0,0,0,2.84.39c1-.52,1.85-1.45,3-1.68a4,4,0,0,1,2.36.28c0-.25,0-.5-.05-.75a4.47,4.47,0,0,0-3.08,0c-1.13.42-2,1.52-3.16,1.78s-1.86-1-2.66-1.66a2.41,2.41,0,0,0-2.67-.22,17.64,17.64,0,0,1-2.65,1.47c-1,.29-1.77-.42-2.4-1.14a4.74,4.74,0,0,0-2.23-1.76,3.79,3.79,0,0,0-2.78.78c-.85.51-1.84,1.25-2.89.88s-1.52-1.26-2.2-1.91a2.89,2.89,0,0,0-2.56-1,10.09,10.09,0,0,0-2.75,1.41,2.23,2.23,0,0,1-1.49.29,2.76,2.76,0,0,1-1.23-.75,9.4,9.4,0,0,0-2.23-2,3.22,3.22,0,0,0-3.25.65c-1,.7-2.38,2.15-3.68,1.39a5.35,5.35,0,0,1-1.27-1.37,6,6,0,0,0-2.94-1.9c-.07.21-.12.43-.19.65A5.26,5.26,0,0,1,242.19,114.58Z"/><path class="cls-12" d="M278.79,167.75a18.78,18.78,0,0,1-8.35,7.25,6,6,0,0,0-3.39,3.73l-1.2,3.83c12.39.48,16.3-11.25,16.3-11.25Z"/><path class="cls-12" d="M261,175.45c-5.34-1.9-8.06-7.13-8.06-7.13l-1.92,3.6s2.24,10.13,14.86,10.65h0l-1.16-3.38A6,6,0,0,0,261,175.45Z"/><path class="cls-14" d="M272.14,178.85a1.5,1.5,0,1,1-1.5-1.5A1.5,1.5,0,0,1,272.14,178.85Z"/><path class="cls-10" d="M169.42,340.19,192.6,576.11a9.47,9.47,0,0,1-18.76,2.5L134.38,344.87A17.69,17.69,0,1,1,169.26,339C169.33,339.37,169.38,339.81,169.42,340.19Z"/><path class="cls-10" d="M127.41,342.86l-11.88,234.7a9.88,9.88,0,0,1-19.75-.39l-2.73-235a17.2,17.2,0,1,1,34.39-.4C127.44,342.14,127.43,342.53,127.41,342.86Z"/><polygon class="cls-12" points="170.93 318.56 195.69 549.76 163.37 549.76 131.21 344.54 128.63 312.48 170.93 318.56"/><polygon class="cls-12" points="87.42 317.56 90.69 549.76 122.49 549.76 133.79 308.76 87.42 317.56"/><path class="cls-12" d="M132,348.36h0a.26.26,0,0,1-.25-.26l.95-31.86a.25.25,0,0,1,.27-.25.24.24,0,0,1,.24.26l-1,31.87A.25.25,0,0,1,132,348.36Z"/><path class="cls-12" d="M132,346.1a.25.25,0,0,1-.25-.25.26.26,0,0,1,.25-.26c2.25,0,4.7-1.42,4.76-3.73l1-24.53a.23.23,0,0,1,.26-.24.26.26,0,0,1,.25.26l-1,24.53C137.21,344.49,134.5,346.1,132,346.1Z"/><path class="cls-12" d="M90,334.11a.25.25,0,0,1,0-.5c9-1.06,13.53-6.24,14.14-16.28a.25.25,0,0,1,.27-.24.26.26,0,0,1,.24.27C104,327.69,99.38,333,90.05,334.11Z"/><path class="cls-12" d="M171.63,336.47a.24.24,0,0,1-.16-.05c-4.85-3.76-8.71-10.59-10.06-17.81a.25.25,0,1,1,.5-.1c1.31,7,5.18,13.87,9.87,17.51a.25.25,0,0,1-.15.45Z"/><path class="cls-10" d="M122.09,291.9a11.21,11.21,0,0,1-10.44-7.12l-28.31-72.3a11.2,11.2,0,1,1,20.86-8.17l28.32,72.3a11.2,11.2,0,0,1-10.43,15.29Z"/><path class="cls-13" d="M83.51,367.61c2.62.27,4.62-.09,7.19-3.55l1.94-15.95,2.14,15.51c23.7,16.66,61.54,17.12,88.44,3.64L168.75,232.19l-7.53-41.38L136.36,183l-33.81,5.14-12.1,49.61Z"/><path class="cls-13" d="M161.21,190.81h0a30.47,30.47,0,0,1,19.06,18.09l19.2,56.45c-7.49,6.91-21.73,10.37-31.91,11.11Z"/><path class="cls-10" d="M49.84,267.82a11.2,11.2,0,0,1-8.33-18.69l43.26-48.22a11.21,11.21,0,0,1,16.68,15L58.19,264.1A11.17,11.17,0,0,1,49.84,267.82Z"/><path class="cls-10" d="M90.37,309.41s7.41-6.27,10.32-6.29,20.84,2.88,20.41,5.18c-.29,1.58-14.95-.45-14.95-.45s15.42,2.86,15.59,4.91-16.07-.58-16.07-.58,13.07,4.05,12.39,5.61-15.6-1.25-15.6-1.25,12.18,4.89,12.07,6.23-15-2.62-15-2.62-11.75,7.71-16.28,2C79.14,316.9,90.37,309.41,90.37,309.41Z"/><path class="cls-10" d="M60,251.62l34.46,61.09a7.23,7.23,0,0,1-12.15,7.79L41.1,263.72a11.22,11.22,0,0,1,18.18-13.17A10.13,10.13,0,0,1,60,251.62Z"/><path class="cls-13" d="M98.14,236.34,119,205.52l-16.46-17.36h0a32.27,32.27,0,0,0-17.32,9.23s-42.06,45.84-48,52.34,2.08,17.14,2.08,17.14l25.38,37.47L84.43,291.7,67.15,256.9Z"/><path class="cls-15" d="M171.22,256.23A.25.25,0,0,1,171,256c0-.33-2.06-33.35-2.49-50.46a.26.26,0,0,1,.25-.26.26.26,0,0,1,.26.25c.42,17.1,2.47,50.11,2.49,50.44a.26.26,0,0,1-.24.27Z"/><path class="cls-15" d="M169.72,229.46a.24.24,0,0,1-.19-.08.25.25,0,0,1,0-.36c4.08-3.6,4.22-10.63,4.22-10.7a.28.28,0,0,1,.26-.26.26.26,0,0,1,.25.26c0,.3-.15,7.33-4.39,11.08A.27.27,0,0,1,169.72,229.46Z"/><path class="cls-15" d="M90.37,240l-.12,0a.25.25,0,0,1-.1-.34,69.23,69.23,0,0,0,8-40.69.27.27,0,0,1,.21-.3.26.26,0,0,1,.29.21c0,.2,3.32,20-8,41A.26.26,0,0,1,90.37,240Z"/><rect class="cls-14" x="145.32" y="232.59" width="19.19" height="2.75"/><path class="cls-14" d="M135.47,194.24c-.51,2-2.05,3.57-2.94,5.44-1,2.14-1.07,4.7-1.29,7q-.72,7.71-.76,15.46c0,2.92,0,5.85.17,8.77,0,.44.71.44.69,0q-.34-7.69,0-15.39c.11-2.55.27-5.09.49-7.64.11-1.25.24-2.51.37-3.76a14.15,14.15,0,0,1,.75-3.7c.85-2.12,2.63-3.75,3.2-6A.35.35,0,0,0,135.47,194.24Z"/><path class="cls-14" d="M140,212.41a2.88,2.88,0,1,1-2.88-2.88A2.88,2.88,0,0,1,140,212.41Z"/><path class="cls-14" d="M140,222.33a2.88,2.88,0,1,1-2.88-2.88A2.87,2.87,0,0,1,140,222.33Z"/><rect class="cls-17" x="102.36" y="229.39" width="33.06" height="50.52" transform="translate(111.14 -26.28) rotate(23.45)"/><path class="cls-19" d="M119.23,278.86,101,271A3.75,3.75,0,0,0,99,266l15-34.59a3.75,3.75,0,0,0,4.93-1.94l18.24,7.91a3.74,3.74,0,0,0,1.95,4.92l-15,34.59A3.75,3.75,0,0,0,119.23,278.86Z"/><rect class="cls-21" x="116.15" y="238.07" width="17.78" height="4.8" transform="translate(106.01 -29.9) rotate(23.45)"/><rect class="cls-21" x="114.18" y="244.18" width="17.78" height="1.69" transform="translate(107.65 -28.74) rotate(23.45)"/><path class="cls-10" d="M187.16,292.12l-59-17.26a7.23,7.23,0,0,1,3.15-14.08L192,270.24a11.23,11.23,0,1,1-3.46,22.19A13.27,13.27,0,0,1,187.16,292.12Z"/><path class="cls-10" d="M137.16,267.68s6.25-19.74,5-21.46S134,256.66,134,256.66,109.66,235,108.17,236.23s8.74,11.2,8.74,11.2-12.89-9.53-14.14-8,11.65,12.1,11.65,12.1-14.54-8.46-14.7-6.69,12.4,10.49,12.4,10.49-12.48-5.28-12.49-4.06,11.55,9,11.55,9c4.81,4.56,10,10.44,12.53,12.28C133.88,279.83,137.16,267.68,137.16,267.68Z"/><path class="cls-13" d="M199.47,265.35s13.81,18.73,2.72,26.53S154.31,285,154.31,285l5.35-21.64Z"/><path class="cls-15" d="M189.6,265.71h0l-29.73-2.12-.33,1.34a.25.25,0,0,1-.31.18.26.26,0,0,1-.18-.31l.38-1.54a.27.27,0,0,1,.27-.2l29.94,2.14a.26.26,0,0,1,.24.27A.26.26,0,0,1,189.6,265.71Z"/><path class="cls-15" d="M173.27,291.39h-.05a100.38,100.38,0,0,1-19-6.18.26.26,0,0,1-.14-.3l.59-2.39a.27.27,0,0,1,.31-.19.26.26,0,0,1,.19.31l-.54,2.19a99.33,99.33,0,0,0,18.7,6.06.26.26,0,0,1,0,.51Z"/><path class="cls-10" d="M122.63,161.89,121,185.52s13.49,6.71,22.42,1.48l-.32-17.93Z"/><path class="cls-9" d="M143.29,180.75c-11.86-1-16-7.48-16-7.48l15.91,1.13Z"/><path class="cls-10" d="M146.55,122.51c-22.06-2.73-33.65,7.88-31.78,28.49,1.49,16.4,11,26.61,26.52,26.66,14.29.05,16.61-11.61,16.8-23.84C158.37,136.38,159.65,124.14,146.55,122.51Z"/><path class="cls-9" d="M157.54,145.39s-5.52-.93-8.93-.33C150.47,142.49,155.4,143.74,157.54,145.39Z"/><path class="cls-9" d="M130.8,145.39s5.52-.93,8.93-.33C137.87,142.49,132.94,143.74,130.8,145.39Z"/><path class="cls-9" d="M150.34,153.53a1.64,1.64,0,1,0,1.61-2A1.83,1.83,0,0,0,150.34,153.53Z"/><path class="cls-13" d="M151.24,152.81a.59.59,0,0,0,.51.64.66.66,0,0,0,0-1.28A.59.59,0,0,0,151.24,152.81Z"/><path class="cls-9" d="M134.78,153.53a1.64,1.64,0,1,0,1.61-2A1.83,1.83,0,0,0,134.78,153.53Z"/><path class="cls-13" d="M135.69,152.81a.58.58,0,0,0,.5.64.66.66,0,0,0,0-1.28A.58.58,0,0,0,135.69,152.81Z"/><path class="cls-20" d="M145.86,160.82a.51.51,0,0,1-.5-.41.52.52,0,0,1,.41-.6,1.72,1.72,0,0,0,1.23-.63.85.85,0,0,0,0-.75,10.56,10.56,0,0,0-.75-1.38,11.11,11.11,0,0,1-.85-1.59.51.51,0,1,1,1-.35,11.87,11.87,0,0,0,.77,1.42,10.72,10.72,0,0,1,.84,1.54,1.85,1.85,0,0,1-.06,1.61,2.63,2.63,0,0,1-1.93,1.13Z"/><path class="cls-9" d="M149.74,163.39a6.72,6.72,0,0,1-2.62,5.34c-2.65,2-6.55,1.49-8-1.72a6.91,6.91,0,0,1-.55-2.64,13.42,13.42,0,0,1,.07-1.38,56.84,56.84,0,0,0,10.17.44C149.15,163.43,149.44,163.41,149.74,163.39Z"/><path class="cls-13" d="M148.85,163.43c-.43,1.29-2.71,2.28-5.46,2.28a7.89,7.89,0,0,1-4.78-1.34,13.42,13.42,0,0,1,.07-1.38A56.84,56.84,0,0,0,148.85,163.43Z"/><path class="cls-17" d="M147.12,168.73c-2.65,2-6.55,1.49-8-1.72a9,9,0,0,1,2.46-.35A8,8,0,0,1,147.12,168.73Z"/><path class="cls-9" d="M113.81,155.29s-9.1-22.64-.61-24.44,12.12.33,12,6.2S120.51,153.24,113.81,155.29Z"/><path class="cls-10" d="M118.44,154.05c1.31,3.24.37,6.35-2,7.3s-5.3-.9-6.61-4.14-.47-6.62,1.87-7.56S117.13,150.82,118.44,154.05Z"/><path class="cls-20" d="M116.18,158.22l-.17,0a2.41,2.41,0,0,1-1.54-3.43,2.32,2.32,0,0,0,.18-.67,1.5,1.5,0,0,0-.42-1.12,1.6,1.6,0,0,0-1.27-.53,1.4,1.4,0,0,0-1,1.46.51.51,0,1,1-1,0,2.41,2.41,0,0,1,1.87-2.47,2.66,2.66,0,0,1,2.87,2.72,3.36,3.36,0,0,1-.25,1,2,2,0,0,0-.2.79,1.64,1.64,0,0,0,1.13,1.32.51.51,0,0,1-.17,1Z"/><path class="cls-12" d="M106.66,121.44l3.47,21.32a336.52,336.52,0,0,1,48.09-2.48l1.17-24.75C140.63,116.28,122.86,118.06,106.66,121.44Z"/><path class="cls-10" d="M146.47,186.19l-11.19-3.51-16.87,3.07c1.49,5,5.77,7.88,10.55,8.86l3.23,6.29,3.54-6.13C141,194,145.55,191,146.47,186.19Z"/></g></svg>